<svg xmlns="http://www.w3.org/2000/svg" width="26.429" height="23.493" viewBox="0 0 26.429 23.493">
  <path id="Icon_awesome-shopping-cart" data-name="Icon awesome-shopping-cart" d="M24.232,13.826,26.4,4.282a1.1,1.1,0,0,0-1.074-1.345H7.305L6.884.881A1.1,1.1,0,0,0,5.806,0H1.1A1.1,1.1,0,0,0,0,1.1v.734a1.1,1.1,0,0,0,1.1,1.1H4.308L7.531,18.695a2.57,2.57,0,1,0,3.076.393h9.619a2.569,2.569,0,1,0,2.918-.477L23.4,17.5a1.1,1.1,0,0,0-1.074-1.345H10.008l-.3-1.468H23.158A1.1,1.1,0,0,0,24.232,13.826Z" fill="#fff"/>
</svg>
