<svg xmlns="http://www.w3.org/2000/svg" width="29" height="29.468" viewBox="0 0 29 29.468">
  <path id="Icon_awesome-power-off" data-name="Icon awesome-power-off" d="M23.482,3.163a14.471,14.471,0,0,1,6.081,11.8A14.62,14.62,0,0,1,23.855,26.5a14.226,14.226,0,0,1-8.763,2.97,14.5,14.5,0,0,1-8.46-26.3,1.408,1.408,0,0,1,2.046.45L9.6,5.262a1.4,1.4,0,0,1-.386,1.813A9.822,9.822,0,1,0,20.9,7.069a1.4,1.4,0,0,1-.38-1.807l.924-1.643a1.4,1.4,0,0,1,2.035-.456ZM17.4,15.435V1.4A1.4,1.4,0,0,0,16,0H14.127a1.4,1.4,0,0,0-1.4,1.4V15.435a1.4,1.4,0,0,0,1.4,1.4H16A1.4,1.4,0,0,0,17.4,15.435Z" transform="translate(-0.562)" fill="#fff"/>
</svg>
