<svg xmlns="http://www.w3.org/2000/svg" width="34.714" height="27" viewBox="0 0 34.714 27">
  <path id="Icon_awesome-shopping-basket" data-name="Icon awesome-shopping-basket" d="M34.714,13.339V14.3a1.446,1.446,0,0,1-1.446,1.446h-.482L31.212,26.766a2.893,2.893,0,0,1-2.864,2.484H6.366A2.893,2.893,0,0,1,3.5,26.766L1.929,15.75H1.446A1.446,1.446,0,0,1,0,14.3v-.964a1.446,1.446,0,0,1,1.446-1.446H5.5L11.94,3.044A1.929,1.929,0,1,1,15.06,5.313l-4.785,6.58H24.44l-4.785-6.58a1.929,1.929,0,0,1,3.119-2.269l6.435,8.849h4.058A1.446,1.446,0,0,1,34.714,13.339ZM18.8,23.946V17.2a1.446,1.446,0,1,0-2.893,0v6.75a1.446,1.446,0,0,0,2.893,0Zm6.75,0V17.2a1.446,1.446,0,1,0-2.893,0v6.75a1.446,1.446,0,0,0,2.893,0Zm-13.5,0V17.2a1.446,1.446,0,1,0-2.893,0v6.75a1.446,1.446,0,0,0,2.893,0Z" transform="translate(0 -2.25)" fill="#fff"/>
</svg>
