<svg xmlns="http://www.w3.org/2000/svg" width="22.065" height="14.894" viewBox="0 0 22.065 14.894">
  <path id="Icon_zocial-email" data-name="Icon zocial-email" d="M.072,17.643V5.387q0-.021.064-.4l7.213,6.171L.157,18.069a1.8,1.8,0,0,1-.085-.426ZM1.029,4.132a.917.917,0,0,1,.362-.064H20.818a1.2,1.2,0,0,1,.383.064l-7.234,6.192-.957.766-1.894,1.553L9.221,11.09l-.957-.766ZM1.051,18.9l7.256-6.958,2.809,2.277,2.809-2.277L21.179,18.9a1.022,1.022,0,0,1-.362.064H1.391a.964.964,0,0,1-.34-.064Zm13.83-7.745,7.192-6.171a1.27,1.27,0,0,1,.064.4V17.643a1.631,1.631,0,0,1-.064.426Z" transform="translate(-0.072 -4.068)" fill="#fca0b5"/>
</svg>
