<svg xmlns="http://www.w3.org/2000/svg" width="15.65" height="20.346" viewBox="0 0 15.65 20.346">
  <path id="Icon_ionic-ios-lock" data-name="Icon ionic-ios-lock" d="M20.444,10.417H19.27V8.133A4.7,4.7,0,1,0,9.88,8.07v2.348H8.706A1.962,1.962,0,0,0,6.75,12.374v9.39A1.962,1.962,0,0,0,8.706,23.72H20.444A1.962,1.962,0,0,0,22.4,21.764v-9.39A1.962,1.962,0,0,0,20.444,10.417Zm-5.184,6.1v3.365a.7.7,0,0,1-.65.7.686.686,0,0,1-.719-.685V16.521a1.565,1.565,0,1,1,1.369,0Zm2.641-6.1H11.249V8.07a3.326,3.326,0,0,1,6.651,0Z" transform="translate(-6.75 -3.374)" fill="#fca0b5"/>
</svg>
